<?xml version="1.0" encoding="utf-8"?>
<!-- Generator: Adobe Illustrator 15.1.0, SVG Export Plug-In . SVG Version: 6.00 Build 0)  -->
<!DOCTYPE svg PUBLIC "-//W3C//DTD SVG 1.1//EN" "http://www.w3.org/Graphics/SVG/1.1/DTD/svg11.dtd">
<svg version="1.1" xmlns="http://www.w3.org/2000/svg" xmlns:xlink="http://www.w3.org/1999/xlink" x="0px" y="0px"
	 width="340.158px" height="340.158px" viewBox="0 0 340.158 340.158" enable-background="new 0 0 340.158 340.158"
	 xml:space="preserve">
<g id="Bakgrunn">
	<path fill="#FFFFFF" d="M65.51,280.083c-2.344,2.347-4.265,1.549-4.265-1.766V59.482c0-3.318,1.506-4.824,4.824-4.824h218.835
		c3.314,0,4.112,1.919,1.766,4.264L65.51,280.083z"/>
</g>
<g id="Logo">
	<path fill="#DB0027" d="M226.581,82.184l-35.992,35.92h-22.795l35.898-35.833l0.512-0.507c0.929-0.929,1.719-1.285,3.031-1.285
		l18.646,0.007C227.195,80.486,227.513,81.254,226.581,82.184z M164.895,118.077l0.008-35.228c0-1.315-1.07-2.399-2.384-2.401
		l-11.345-0.004c-1.313,0-2.42,1.077-2.42,2.394v35.266h16.142C164.896,118.1,164.895,118.09,164.895,118.077z M148.731,156.392
		v0.042c0,0.002,0,0.002,0,0.006v0.137h0.002c0.021,0.869,0.223,2.913,3.099,0.191h0.018l35.843-35.774h-38.942L148.731,156.392z"/>
	<path fill="#009032" d="M139.929,135.846c-0.013,14.894-11.701,25.086-27.971,25.074c-15.807-0.012-27.62-11.128-27.614-25.109
		v-0.181c0.001-1.263,1.035-2.293,2.297-2.292l11.574,0.008c1.26,0.002,2.292,1.034,2.292,2.295v0.18
		c-0.004,5.271,4.364,9.401,11.463,9.407c6.871,0.005,11.348-4.001,11.352-9.393c0.001-4.922-3.321-7.218-11.913-9.168
		c-14.322-3.214-25.66-9.529-25.649-24.306c0.008-13.517,11.125-24.167,26.254-24.157c15.323,0.013,26.657,10.636,26.691,24.119
		c-0.011,1.254-1.038,2.275-2.292,2.273l-11.569-0.008c-1.259-0.003-2.296-1.028-2.29-2.291l-0.006,0.09
		c0.006-4.584-4.016-8.594-10.546-8.598c-6.416-0.005-9.97,3.425-9.97,8.008c0,4.353,4.231,7.111,10.19,8.256
		C128.144,113.273,139.938,119.924,139.929,135.846z"/>
</g>
</svg>
