<?xml version="1.0" encoding="utf-8"?>
<!-- Generator: Adobe Illustrator 15.0.2, SVG Export Plug-In . SVG Version: 6.00 Build 0)  -->
<!DOCTYPE svg PUBLIC "-//W3C//DTD SVG 1.1//EN" "http://www.w3.org/Graphics/SVG/1.1/DTD/svg11.dtd">
<svg version="1.1" id="Layer_1" xmlns="http://www.w3.org/2000/svg" xmlns:xlink="http://www.w3.org/1999/xlink" x="0px" y="0px"
	 width="340.158px" height="340.158px" viewBox="0 0 340.158 340.158" enable-background="new 0 0 340.158 340.158"
	 xml:space="preserve">
<g id="Logo">
	<path fill="#DB0027" d="M296.277,100.443l-56.412,56.299h-35.728l56.266-56.163l0.802-0.794c1.455-1.457,2.693-2.014,4.751-2.014
		l29.224,0.011C297.24,97.781,297.739,98.984,296.277,100.443z M199.594,156.698l0.013-55.213c0-2.062-1.678-3.761-3.736-3.764
		l-17.782-0.006c-2.058,0-3.793,1.688-3.793,3.751v55.275h25.301C199.596,156.735,199.594,156.719,199.594,156.698z M174.26,216.752
		v0.065c0,0.004,0,0.004,0,0.01v0.214h0.003c0.032,1.362,0.349,4.566,4.856,0.3h0.029l56.178-56.07h-61.036L174.26,216.752z"/>
	<path fill="#009032" d="M160.465,184.55c-0.021,23.343-18.339,39.318-43.841,39.298c-24.774-0.019-43.29-17.441-43.279-39.353
		v-0.285c0.001-1.979,1.621-3.594,3.6-3.592l18.139,0.014c1.976,0.002,3.592,1.619,3.592,3.596v0.282
		c-0.006,8.261,6.84,14.735,17.968,14.744c10.768,0.008,17.786-6.271,17.792-14.723c0.002-7.714-5.206-11.312-18.672-14.369
		c-22.448-5.038-40.218-14.935-40.201-38.096c0.014-21.185,17.437-37.877,41.15-37.862c24.015,0.02,41.779,16.67,41.833,37.803
		c-0.017,1.965-1.627,3.566-3.592,3.563l-18.133-0.014c-1.973-0.005-3.598-1.61-3.587-3.591l-0.011,0.142
		c0.011-7.185-6.294-13.471-16.529-13.477c-10.056-0.007-15.626,5.368-15.626,12.551c0,6.823,6.632,11.146,15.972,12.941
		C141.994,149.17,160.479,159.593,160.465,184.55z"/>
</g>
</svg>
