<?xml version="1.0" encoding="utf-8"?>
<!-- Generator: Adobe Illustrator 15.0.2, SVG Export Plug-In . SVG Version: 6.00 Build 0)  -->
<!DOCTYPE svg PUBLIC "-//W3C//DTD SVG 1.1//EN" "http://www.w3.org/Graphics/SVG/1.1/DTD/svg11.dtd">
<svg version="1.1" id="Layer_1" xmlns="http://www.w3.org/2000/svg" xmlns:xlink="http://www.w3.org/1999/xlink" x="0px" y="0px"
	 width="841.889px" height="1190.551px" viewBox="0 0 841.889 1190.551" enable-background="new 0 0 841.889 1190.551"
	 xml:space="preserve">
<path fill="#DB0127" d="M123.323,854.917h595.242c68.002,0,123.323-55.322,123.323-123.323V336.957
	c0-68.001-55.321-123.323-123.323-123.323H123.323C55.323,213.634,0,268.956,0,336.957v394.637
	C0,799.594,55.323,854.917,123.323,854.917z M49.329,336.957c0-40.8,33.194-73.994,73.994-73.994h595.242
	c40.8,0,73.994,33.194,73.994,73.994v394.637c0,40.799-33.194,73.994-73.994,73.994H123.323c-40.8,0-73.994-33.195-73.994-73.994
	V336.957z"/>
<path fill="#DB0127" d="M297.621,369.034v335.273L594.42,533.922L297.621,369.034z M346.95,452.869l147.166,81.76L346.95,619.111
	V452.869z"/>
</svg>
