<?xml version="1.0" encoding="utf-8"?>
<!-- Generator: Adobe Illustrator 15.0.2, SVG Export Plug-In . SVG Version: 6.00 Build 0)  -->
<!DOCTYPE svg PUBLIC "-//W3C//DTD SVG 1.1//EN" "http://www.w3.org/Graphics/SVG/1.1/DTD/svg11.dtd">
<svg version="1.1" id="Layer_1" xmlns="http://www.w3.org/2000/svg" xmlns:xlink="http://www.w3.org/1999/xlink" x="0px" y="0px"
	 width="841.889px" height="1190.551px" viewBox="0 0 841.889 1190.551" enable-background="new 0 0 841.889 1190.551"
	 xml:space="preserve">
<path fill="#DB0127" d="M123.323,1016.22h274.601V716.955h-98.658v-98.659h98.658V494.971c0-68.001,55.322-123.323,123.324-123.323
	h123.323v98.659h-98.659c-27.201,0-49.329,22.127-49.329,49.329v98.659H640.12l-16.443,98.659H496.583v299.266h221.982
	c68.002,0,123.323-55.322,123.323-123.324V297.654c0-68.002-55.321-123.324-123.323-123.324H123.323
	C55.323,174.33,0,229.652,0,297.654v595.242C0,960.898,55.323,1016.22,123.323,1016.22z M49.329,297.654
	c0-40.8,33.194-73.994,73.994-73.994h595.242c40.8,0,73.994,33.194,73.994,73.994v595.242c0,40.8-33.194,73.994-73.994,73.994
	H545.912V766.284h119.554l32.886-197.317H545.912v-49.33h147.988V322.318H521.248c-95.204,0-172.653,77.45-172.653,172.653v73.995
	h-98.659v197.317h98.659V966.89H123.323c-40.8,0-73.994-33.194-73.994-73.994V297.654z"/>
</svg>
