<?xml version="1.0" encoding="utf-8"?>
<!-- Generator: Adobe Illustrator 15.0.2, SVG Export Plug-In . SVG Version: 6.00 Build 0)  -->
<!DOCTYPE svg PUBLIC "-//W3C//DTD SVG 1.1//EN" "http://www.w3.org/Graphics/SVG/1.1/DTD/svg11.dtd">
<svg version="1.1" id="Layer_1" xmlns="http://www.w3.org/2000/svg" xmlns:xlink="http://www.w3.org/1999/xlink" x="0px" y="0px"
	 width="841.889px" height="1190.551px" viewBox="0 0 841.889 1190.551" enable-background="new 0 0 841.889 1190.551"
	 xml:space="preserve">
<path fill="#DB0127" d="M123.323,1016.22h595.242c68.002,0,123.323-55.322,123.323-123.324V297.654
	c0-68.002-55.321-123.324-123.323-123.324H123.323C55.323,174.33,0,229.652,0,297.654v595.242
	C0,960.898,55.323,1016.22,123.323,1016.22z M49.329,297.654c0-40.8,33.194-73.994,73.994-73.994h595.242
	c40.8,0,73.994,33.194,73.994,73.994v595.242c0,40.8-33.194,73.994-73.994,73.994H123.323c-40.8,0-73.994-33.194-73.994-73.994
	V297.654z"/>
<path fill="#DB0127" d="M420.945,817.258c122.398,0,221.982-99.584,221.982-221.982s-99.584-221.982-221.982-221.982
	s-221.982,99.584-221.982,221.982S298.546,817.258,420.945,817.258z M420.945,422.622c95.203,0,172.653,77.45,172.653,172.653
	s-77.45,172.653-172.653,172.653s-172.653-77.45-172.653-172.653S325.741,422.622,420.945,422.622z"/>
<path fill="#DB0127" d="M667.592,422.622c40.8,0,73.994-33.194,73.994-73.994s-33.194-73.994-73.994-73.994
	s-73.994,33.194-73.994,73.994S626.792,422.622,667.592,422.622z M667.592,323.963c13.598,0,24.665,11.067,24.665,24.665
	s-11.067,24.665-24.665,24.665s-24.665-11.067-24.665-24.665S653.994,323.963,667.592,323.963z"/>
</svg>
