<?xml version="1.0" encoding="utf-8"?>
<!-- Generator: Adobe Illustrator 15.0.2, SVG Export Plug-In . SVG Version: 6.00 Build 0)  -->
<!DOCTYPE svg PUBLIC "-//W3C//DTD SVG 1.1//EN" "http://www.w3.org/Graphics/SVG/1.1/DTD/svg11.dtd">
<svg version="1.1" id="Layer_1" xmlns="http://www.w3.org/2000/svg" xmlns:xlink="http://www.w3.org/1999/xlink" x="0px" y="0px"
	 width="841.889px" height="1190.551px" viewBox="0 0 841.889 1190.551" enable-background="new 0 0 841.889 1190.551"
	 xml:space="preserve">
<path fill="#DB0127" d="M841.889,296.636c-52.958,2.441-51.802,2.242-57.788,2.743l31.364-89.57c0,0-97.901,36.015-122.721,42.457
	c-65.182-58.586-162.067-61.174-231.334-18.602c-56.723,34.871-87.168,94.754-77.014,164.746
	c-110.394-15.319-203.406-67.648-276.842-155.863l-23.226-27.896l-17.355,31.872c-21.935,40.272-29.219,86.319-20.516,129.656
	c3.571,17.779,9.642,34.736,18.049,50.614l-19.924-7.721l-2.364,33.291c-2.396,33.818,8.864,73.294,30.124,105.59
	c5.986,9.095,13.694,19.083,23.464,28.936l-10.296-1.58l12.563,38.147c16.514,50.119,50.813,88.896,95.325,110.451
	c-44.454,18.865-80.366,30.902-139.395,50.319L0,801.981l49.882,27.272c19.019,10.399,86.224,45.129,152.626,55.547
	c147.603,23.149,313.787,4.298,425.665-96.462c94.233-84.868,125.154-205.591,118.731-331.22c-0.97-19.02,4.239-37.171,14.67-51.103
	C782.469,378.121,841.761,296.823,841.889,296.636z M722.13,376.469c-17.323,23.13-26,52.67-24.446,83.167
	c6.481,126.722-27.998,224.995-102.486,292.078c-87.015,78.368-227.365,109.128-385.053,84.393
	c-28.558-4.477-58.071-14.503-82.498-24.517c49.489-17.027,87.707-32.206,149.427-61.418l86.159-40.78l-95.126-6.089
	c-45.565-2.916-83.507-24.999-106.829-60.853c12.384-0.72,24.324-2.724,36.214-6.038l90.727-25.269l-91.484-22.403
	c-44.455-10.888-69.794-37.485-83.225-57.886c-8.818-13.404-14.58-27.137-18.036-39.797c9.172,2.46,19.867,4.213,37.113,5.922
	l84.676,8.376l-67.09-52.336c-48.34-37.703-67.712-94.349-53.511-148.804c150.866,156.479,328.002,144.719,345.833,148.855
	c-3.925-38.121-4.027-38.211-5.056-41.84c-22.834-80.72,27.209-121.706,49.779-135.58c47.146-28.975,121.981-33.342,173.815,14.395
	c11.196,10.303,26.335,14.355,40.505,10.836c12.718-3.16,23.155-6.507,33.374-10.148l-21.273,60.75l27.157,0.019
	C735.67,358.376,729.524,366.604,722.13,376.469z"/>
</svg>
